  0
SECTION
  2
HEADER
  9
$ACADVER
  1
AC1009
  9
$FILLMODE
 70
 0
  9
$SPLFRAME
 70
 1
  9
$EXTMIN
 10
0
 20
0
 30
0.0
  9
$EXTMAX
 10
1058.33
 20
1058.33
 30
0.0
  0
ENDSEC
  0
SECTION
  2
TABLES
  0
TABLE
  2
LAYER
 70
1
  0
LAYER
  2
0
 70
     0
 62
     7
  6
CONTINUOUS
  0
ENDTAB
  0
ENDSEC
  0
SECTION
  2
ENTITIES
  0
LINE
  8
0
 62
     0
 10
121.922
 20
57.4075
 30
0.0
 11
122.078
 21
57.4008
 31
0.0
  0
LINE
  8
0
 62
     0
 10
122.078
 20
57.4008
 30
0.0
 11
122.233
 21
57.3828
 31
0.0
  0
LINE
  8
0
 62
     0
 10
122.233
 20
57.3828
 30
0.0
 11
122.388
 21
57.3525
 31
0.0
  0
LINE
  8
0
 62
     0
 10
122.388
 20
57.3525
 30
0.0
 11
122.539
 21
57.3098
 31
0.0
  0
LINE
  8
0
 62
     0
 10
122.539
 20
57.3098
 30
0.0
 11
122.687
 21
57.2548
 31
0.0
  0
LINE
  8
0
 62
     0
 10
122.687
 20
57.2548
 30
0.0
 11
122.829
 21
57.1899
 31
0.0
  0
LINE
  8
0
 62
     0
 10
122.829
 20
57.1899
 30
0.0
 11
122.965
 21
57.113
 31
0.0
  0
LINE
  8
0
 62
     0
 10
122.965
 20
57.113
 30
0.0
 11
123.096
 21
57.0258
 31
0.0
  0
LINE
  8
0
 62
     0
 10
123.096
 20
57.0258
 30
0.0
 11
123.22
 21
56.9281
 31
0.0
  0
LINE
  8
0
 62
     0
 10
123.22
 20
56.9281
 30
0.0
 11
123.336
 21
56.8219
 31
0.0
  0
LINE
  8
0
 62
     0
 10
123.336
 20
56.8219
 30
0.0
 11
123.442
 21
56.7062
 31
0.0
  0
LINE
  8
0
 62
     0
 10
123.442
 20
56.7062
 30
0.0
 11
123.539
 21
56.5838
 31
0.0
  0
LINE
  8
0
 62
     0
 10
123.539
 20
56.5838
 30
0.0
 11
123.627
 21
56.4526
 31
0.0
  0
LINE
  8
0
 62
     0
 10
123.627
 20
56.4526
 30
0.0
 11
123.704
 21
56.315
 31
0.0
  0
LINE
  8
0
 62
     0
 10
123.704
 20
56.315
 30
0.0
 11
123.769
 21
56.1728
 31
0.0
  0
LINE
  8
0
 62
     0
 10
123.769
 20
56.1728
 30
0.0
 11
123.824
 21
56.0268
 31
0.0
  0
LINE
  8
0
 62
     0
 10
123.824
 20
56.0268
 30
0.0
 11
123.865
 21
55.874
 31
0.0
  0
LINE
  8
0
 62
     0
 10
123.865
 20
55.874
 30
0.0
 11
123.895
 21
55.7209
 31
0.0
  0
LINE
  8
0
 62
     0
 10
123.895
 20
55.7209
 30
0.0
 11
123.913
 21
55.5639
 31
0.0
  0
LINE
  8
0
 62
     0
 10
123.913
 20
55.5639
 30
0.0
 11
123.921
 21
55.4069
 31
0.0
  0
LINE
  8
0
 62
     0
 10
123.921
 20
55.4069
 30
0.0
 11
123.921
 21
2.25723
 31
0.0
  0
LINE
  8
0
 62
     0
 10
123.921
 20
2.25723
 30
0.0
 11
123.913
 21
2.10013
 31
0.0
  0
LINE
  8
0
 62
     0
 10
123.913
 20
2.10013
 30
0.0
 11
123.895
 21
1.94441
 31
0.0
  0
LINE
  8
0
 62
     0
 10
123.895
 20
1.94441
 30
0.0
 11
123.865
 21
1.79007
 31
0.0
  0
LINE
  8
0
 62
     0
 10
123.865
 20
1.79007
 30
0.0
 11
123.824
 21
1.63849
 31
0.0
  0
LINE
  8
0
 62
     0
 10
123.824
 20
1.63849
 30
0.0
 11
123.769
 21
1.49104
 31
0.0
  0
LINE
  8
0
 62
     0
 10
123.769
 20
1.49104
 30
0.0
 11
123.704
 21
1.3491
 31
0.0
  0
LINE
  8
0
 62
     0
 10
123.704
 20
1.3491
 30
0.0
 11
123.627
 21
1.21267
 31
0.0
  0
LINE
  8
0
 62
     0
 10
123.627
 20
1.21267
 30
0.0
 11
123.539
 21
1.08176
 31
0.0
  0
LINE
  8
0
 62
     0
 10
123.539
 20
1.08176
 30
0.0
 11
123.442
 21
0.957735
 31
0.0
  0
LINE
  8
0
 62
     0
 10
123.442
 20
0.957735
 30
0.0
 11
123.336
 21
0.841982
 31
0.0
  0
LINE
  8
0
 62
     0
 10
123.336
 20
0.841982
 30
0.0
 11
123.22
 21
0.735873
 31
0.0
  0
LINE
  8
0
 62
     0
 10
123.22
 20
0.735873
 30
0.0
 11
123.096
 21
0.63803
 31
0.0
  0
LINE
  8
0
 62
     0
 10
123.096
 20
0.63803
 30
0.0
 11
122.965
 21
0.551215
 31
0.0
  0
LINE
  8
0
 62
     0
 10
122.965
 20
0.551215
 30
0.0
 11
122.829
 21
0.474045
 31
0.0
  0
LINE
  8
0
 62
     0
 10
122.829
 20
0.474045
 30
0.0
 11
122.687
 21
0.409279
 31
0.0
  0
LINE
  8
0
 62
     0
 10
122.687
 20
0.409279
 30
0.0
 11
122.539
 21
0.354157
 31
0.0
  0
LINE
  8
0
 62
     0
 10
122.539
 20
0.354157
 30
0.0
 11
122.388
 21
0.312815
 31
0.0
  0
LINE
  8
0
 62
     0
 10
122.388
 20
0.312815
 30
0.0
 11
122.233
 21
0.28112
 31
0.0
  0
LINE
  8
0
 62
     0
 10
122.233
 20
0.28112
 30
0.0
 11
122.078
 21
0.263205
 31
0.0
  0
LINE
  8
0
 62
     0
 10
122.078
 20
0.263205
 30
0.0
 11
121.922
 21
0.256315
 31
0.0
  0
LINE
  8
0
 62
     0
 10
121.922
 20
0.256315
 30
0.0
 11
2.096
 21
0.257693
 31
0.0
  0
LINE
  8
0
 62
     0
 10
2.096
 20
0.257693
 30
0.0
 11
1.9389
 21
0.263205
 31
0.0
  0
LINE
  8
0
 62
     0
 10
1.9389
 20
0.263205
 30
0.0
 11
1.7818
 21
0.28112
 31
0.0
  0
LINE
  8
0
 62
     0
 10
1.7818
 20
0.28112
 30
0.0
 11
1.62884
 21
0.312815
 31
0.0
  0
LINE
  8
0
 62
     0
 10
1.62884
 20
0.312815
 30
0.0
 11
1.47588
 21
0.354157
 31
0.0
  0
LINE
  8
0
 62
     0
 10
1.47588
 20
0.354157
 30
0.0
 11
1.32981
 21
0.409279
 31
0.0
  0
LINE
  8
0
 62
     0
 10
1.32981
 20
0.409279
 30
0.0
 11
1.18787
 21
0.474045
 31
0.0
  0
LINE
  8
0
 62
     0
 10
1.18787
 20
0.474045
 30
0.0
 11
1.05006
 21
0.551215
 31
0.0
  0
LINE
  8
0
 62
     0
 10
1.05006
 20
0.551215
 30
0.0
 11
0.919152
 21
0.63803
 31
0.0
  0
LINE
  8
0
 62
     0
 10
0.919152
 20
0.63803
 30
0.0
 11
0.796505
 21
0.735873
 31
0.0
  0
LINE
  8
0
 62
     0
 10
0.796505
 20
0.735873
 30
0.0
 11
0.680752
 21
0.841982
 31
0.0
  0
LINE
  8
0
 62
     0
 10
0.680752
 20
0.841982
 30
0.0
 11
0.574643
 21
0.957735
 31
0.0
  0
LINE
  8
0
 62
     0
 10
0.574643
 20
0.957735
 30
0.0
 11
0.4768
 21
1.08176
 31
0.0
  0
LINE
  8
0
 62
     0
 10
0.4768
 20
1.08176
 30
0.0
 11
0.389985
 21
1.21267
 31
0.0
  0
LINE
  8
0
 62
     0
 10
0.389985
 20
1.21267
 30
0.0
 11
0.312815
 21
1.3491
 31
0.0
  0
LINE
  8
0
 62
     0
 10
0.312815
 20
1.3491
 30
0.0
 11
0.248047
 21
1.49104
 31
0.0
  0
LINE
  8
0
 62
     0
 10
0.248047
 20
1.49104
 30
0.0
 11
0.192925
 21
1.63849
 31
0.0
  0
LINE
  8
0
 62
     0
 10
0.192925
 20
1.63849
 30
0.0
 11
0.150206
 21
1.79007
 31
0.0
  0
LINE
  8
0
 62
     0
 10
0.150206
 20
1.79007
 30
0.0
 11
0.119889
 21
1.94441
 31
0.0
  0
LINE
  8
0
 62
     0
 10
0.119889
 20
1.94441
 30
0.0
 11
0.101975
 21
2.10013
 31
0.0
  0
LINE
  8
0
 62
     0
 10
0.101975
 20
2.10013
 30
0.0
 11
0.0950846
 21
2.25723
 31
0.0
  0
LINE
  8
0
 62
     0
 10
0.0950846
 20
2.25723
 30
0.0
 11
0.0950846
 21
55.4069
 31
0.0
  0
LINE
  8
0
 62
     0
 10
0.0950846
 20
55.4069
 30
0.0
 11
0.101975
 21
55.5639
 31
0.0
  0
LINE
  8
0
 62
     0
 10
0.101975
 20
55.5639
 30
0.0
 11
0.119889
 21
55.7209
 31
0.0
  0
LINE
  8
0
 62
     0
 10
0.119889
 20
55.7209
 30
0.0
 11
0.150206
 21
55.874
 31
0.0
  0
LINE
  8
0
 62
     0
 10
0.150206
 20
55.874
 30
0.0
 11
0.192925
 21
56.0268
 31
0.0
  0
LINE
  8
0
 62
     0
 10
0.192925
 20
56.0268
 30
0.0
 11
0.248047
 21
56.1728
 31
0.0
  0
LINE
  8
0
 62
     0
 10
0.248047
 20
56.1728
 30
0.0
 11
0.312815
 21
56.315
 31
0.0
  0
LINE
  8
0
 62
     0
 10
0.312815
 20
56.315
 30
0.0
 11
0.389985
 21
56.4526
 31
0.0
  0
LINE
  8
0
 62
     0
 10
0.389985
 20
56.4526
 30
0.0
 11
0.4768
 21
56.5838
 31
0.0
  0
LINE
  8
0
 62
     0
 10
0.4768
 20
56.5838
 30
0.0
 11
0.574643
 21
56.7062
 31
0.0
  0
LINE
  8
0
 62
     0
 10
0.574643
 20
56.7062
 30
0.0
 11
0.680752
 21
56.8219
 31
0.0
  0
LINE
  8
0
 62
     0
 10
0.680752
 20
56.8219
 30
0.0
 11
0.796505
 21
56.9281
 31
0.0
  0
LINE
  8
0
 62
     0
 10
0.796505
 20
56.9281
 30
0.0
 11
0.919152
 21
57.0258
 31
0.0
  0
LINE
  8
0
 62
     0
 10
0.919152
 20
57.0258
 30
0.0
 11
1.05006
 21
57.113
 31
0.0
  0
LINE
  8
0
 62
     0
 10
1.05006
 20
57.113
 30
0.0
 11
1.18787
 21
57.1899
 31
0.0
  0
LINE
  8
0
 62
     0
 10
1.18787
 20
57.1899
 30
0.0
 11
1.32981
 21
57.2548
 31
0.0
  0
LINE
  8
0
 62
     0
 10
1.32981
 20
57.2548
 30
0.0
 11
1.47588
 21
57.3098
 31
0.0
  0
LINE
  8
0
 62
     0
 10
1.47588
 20
57.3098
 30
0.0
 11
1.62884
 21
57.3525
 31
0.0
  0
LINE
  8
0
 62
     0
 10
1.62884
 20
57.3525
 30
0.0
 11
1.7818
 21
57.3828
 31
0.0
  0
LINE
  8
0
 62
     0
 10
1.7818
 20
57.3828
 30
0.0
 11
1.9389
 21
57.4008
 31
0.0
  0
LINE
  8
0
 62
     0
 10
1.9389
 20
57.4008
 30
0.0
 11
2.096
 21
57.4075
 31
0.0
  0
LINE
  8
0
 62
     0
 10
2.096
 20
57.4075
 30
0.0
 11
121.922
 21
57.4075
 31
0.0
  0
LINE
  8
0
 62
     0
 10
55.0072
 20
16.7817
 30
0.0
 11
55.0072
 21
12.0826
 31
0.0
  0
LINE
  8
0
 62
     0
 10
55.0072
 20
12.0826
 30
0.0
 11
53.4829
 21
12.0826
 31
0.0
  0
LINE
  8
0
 62
     0
 10
53.4829
 20
12.0826
 30
0.0
 11
53.4829
 21
15.3128
 31
0.0
  0
LINE
  8
0
 62
     0
 10
53.4829
 20
15.3128
 30
0.0
 11
46.7321
 21
15.3128
 31
0.0
  0
LINE
  8
0
 62
     0
 10
46.7321
 20
15.3128
 30
0.0
 11
46.7321
 21
12.0826
 31
0.0
  0
LINE
  8
0
 62
     0
 10
46.7321
 20
12.0826
 30
0.0
 11
45.908
 21
12.0826
 31
0.0
  0
LINE
  8
0
 62
     0
 10
45.908
 20
12.0826
 30
0.0
 11
45.908
 21
9.28247
 31
0.0
  0
LINE
  8
0
 62
     0
 10
45.908
 20
9.28247
 30
0.0
 11
46.7321
 21
9.28247
 31
0.0
  0
LINE
  8
0
 62
     0
 10
46.7321
 20
9.28247
 30
0.0
 11
46.7321
 21
3.01377
 31
0.0
  0
LINE
  8
0
 62
     0
 10
46.7321
 20
3.01377
 30
0.0
 11
48.4572
 21
3.01377
 31
0.0
  0
LINE
  8
0
 62
     0
 10
48.4572
 20
3.01377
 30
0.0
 11
48.4572
 21
1.81212
 31
0.0
  0
LINE
  8
0
 62
     0
 10
48.4572
 20
1.81212
 30
0.0
 11
51.7578
 21
1.81212
 31
0.0
  0
LINE
  8
0
 62
     0
 10
51.7578
 20
1.81212
 30
0.0
 11
51.7578
 21
3.01377
 31
0.0
  0
LINE
  8
0
 62
     0
 10
51.7578
 20
3.01377
 30
0.0
 11
53.4829
 21
3.01377
 31
0.0
  0
LINE
  8
0
 62
     0
 10
53.4829
 20
3.01377
 30
0.0
 11
53.4829
 21
7.48273
 31
0.0
  0
LINE
  8
0
 62
     0
 10
53.4829
 20
7.48273
 30
0.0
 11
55.0072
 21
7.48273
 31
0.0
  0
LINE
  8
0
 62
     0
 10
55.0072
 20
7.48273
 30
0.0
 11
55.0072
 21
2.78226
 31
0.0
  0
LINE
  8
0
 62
     0
 10
55.0072
 20
2.78226
 30
0.0
 11
69.0079
 21
2.78226
 31
0.0
  0
LINE
  8
0
 62
     0
 10
69.0079
 20
2.78226
 30
0.0
 11
69.0079
 21
7.48273
 31
0.0
  0
LINE
  8
0
 62
     0
 10
69.0079
 20
7.48273
 30
0.0
 11
70.5323
 21
7.48273
 31
0.0
  0
LINE
  8
0
 62
     0
 10
70.5323
 20
7.48273
 30
0.0
 11
70.5323
 21
3.01377
 31
0.0
  0
LINE
  8
0
 62
     0
 10
70.5323
 20
3.01377
 30
0.0
 11
72.2574
 21
3.01377
 31
0.0
  0
LINE
  8
0
 62
     0
 10
72.2574
 20
3.01377
 30
0.0
 11
72.2574
 21
1.81212
 31
0.0
  0
LINE
  8
0
 62
     0
 10
72.2574
 20
1.81212
 30
0.0
 11
75.5579
 21
1.81212
 31
0.0
  0
LINE
  8
0
 62
     0
 10
75.5579
 20
1.81212
 30
0.0
 11
75.5579
 21
3.01377
 31
0.0
  0
LINE
  8
0
 62
     0
 10
75.5579
 20
3.01377
 30
0.0
 11
77.283
 21
3.01377
 31
0.0
  0
LINE
  8
0
 62
     0
 10
77.283
 20
3.01377
 30
0.0
 11
77.283
 21
9.28247
 31
0.0
  0
LINE
  8
0
 62
     0
 10
77.283
 20
9.28247
 30
0.0
 11
78.1071
 21
9.28247
 31
0.0
  0
LINE
  8
0
 62
     0
 10
78.1071
 20
9.28247
 30
0.0
 11
78.1071
 21
12.0826
 31
0.0
  0
LINE
  8
0
 62
     0
 10
78.1071
 20
12.0826
 30
0.0
 11
77.283
 21
12.0826
 31
0.0
  0
LINE
  8
0
 62
     0
 10
77.283
 20
12.0826
 30
0.0
 11
77.283
 21
15.3128
 31
0.0
  0
LINE
  8
0
 62
     0
 10
77.283
 20
15.3128
 30
0.0
 11
70.5323
 21
15.3128
 31
0.0
  0
LINE
  8
0
 62
     0
 10
70.5323
 20
15.3128
 30
0.0
 11
70.5323
 21
12.0826
 31
0.0
  0
LINE
  8
0
 62
     0
 10
70.5323
 20
12.0826
 30
0.0
 11
69.0079
 21
12.0826
 31
0.0
  0
LINE
  8
0
 62
     0
 10
69.0079
 20
12.0826
 30
0.0
 11
69.0079
 21
16.7817
 31
0.0
  0
LINE
  8
0
 62
     0
 10
69.0079
 20
16.7817
 30
0.0
 11
55.0072
 21
16.7817
 31
0.0
  0
LINE
  8
0
 62
     0
 10
7.38216
 20
16.7817
 30
0.0
 11
21.383
 21
16.7817
 31
0.0
  0
LINE
  8
0
 62
     0
 10
21.383
 20
16.7817
 30
0.0
 11
21.383
 21
2.78226
 31
0.0
  0
LINE
  8
0
 62
     0
 10
21.383
 20
2.78226
 30
0.0
 11
7.38216
 21
2.78226
 31
0.0
  0
LINE
  8
0
 62
     0
 10
7.38216
 20
2.78226
 30
0.0
 11
7.38216
 21
16.7817
 31
0.0
  0
LINE
  8
0
 62
     0
 10
24.0509
 20
16.7817
 30
0.0
 11
40.4329
 21
16.7817
 31
0.0
  0
LINE
  8
0
 62
     0
 10
40.4329
 20
16.7817
 30
0.0
 11
40.4329
 21
2.78226
 31
0.0
  0
LINE
  8
0
 62
     0
 10
40.4329
 20
2.78226
 30
0.0
 11
24.0509
 21
2.78226
 31
0.0
  0
LINE
  8
0
 62
     0
 10
24.0509
 20
2.78226
 30
0.0
 11
24.0509
 21
16.7817
 31
0.0
  0
LINE
  8
0
 62
     0
 10
83.5822
 20
16.7817
 30
0.0
 11
99.9628
 21
16.7817
 31
0.0
  0
LINE
  8
0
 62
     0
 10
99.9628
 20
16.7817
 30
0.0
 11
99.9628
 21
2.78226
 31
0.0
  0
LINE
  8
0
 62
     0
 10
99.9628
 20
2.78226
 30
0.0
 11
83.5822
 21
2.78226
 31
0.0
  0
LINE
  8
0
 62
     0
 10
83.5822
 20
2.78226
 30
0.0
 11
83.5822
 21
16.7817
 31
0.0
  0
LINE
  8
0
 62
     0
 10
102.632
 20
16.7817
 30
0.0
 11
116.633
 21
16.7817
 31
0.0
  0
LINE
  8
0
 62
     0
 10
116.633
 20
16.7817
 30
0.0
 11
116.633
 21
2.78226
 31
0.0
  0
LINE
  8
0
 62
     0
 10
116.633
 20
2.78226
 30
0.0
 11
102.632
 21
2.78226
 31
0.0
  0
LINE
  8
0
 62
     0
 10
102.632
 20
2.78226
 30
0.0
 11
102.632
 21
16.7817
 31
0.0
  0
LINE
  8
0
 62
     0
 10
5.00091
 20
35.8316
 30
0.0
 11
23.7629
 21
35.8316
 31
0.0
  0
LINE
  8
0
 62
     0
 10
23.7629
 20
35.8316
 30
0.0
 11
23.7629
 21
21.8323
 31
0.0
  0
LINE
  8
0
 62
     0
 10
23.7629
 20
21.8323
 30
0.0
 11
5.00091
 21
21.8323
 31
0.0
  0
LINE
  8
0
 62
     0
 10
5.00091
 20
21.8323
 30
0.0
 11
5.00091
 21
35.8316
 31
0.0
  0
LINE
  8
0
 62
     0
 10
35.9572
 20
35.8316
 30
0.0
 11
49.9579
 21
35.8316
 31
0.0
  0
LINE
  8
0
 62
     0
 10
49.9579
 20
35.8316
 30
0.0
 11
49.9579
 21
21.8323
 31
0.0
  0
LINE
  8
0
 62
     0
 10
49.9579
 20
21.8323
 30
0.0
 11
35.9572
 21
21.8323
 31
0.0
  0
LINE
  8
0
 62
     0
 10
35.9572
 20
21.8323
 30
0.0
 11
35.9572
 21
35.8316
 31
0.0
  0
LINE
  8
0
 62
     0
 10
55.0072
 20
35.8316
 30
0.0
 11
69.0079
 21
35.8316
 31
0.0
  0
LINE
  8
0
 62
     0
 10
69.0079
 20
35.8316
 30
0.0
 11
69.0079
 21
21.8323
 31
0.0
  0
LINE
  8
0
 62
     0
 10
69.0079
 20
21.8323
 30
0.0
 11
55.0072
 21
21.8323
 31
0.0
  0
LINE
  8
0
 62
     0
 10
55.0072
 20
21.8323
 30
0.0
 11
55.0072
 21
35.8316
 31
0.0
  0
LINE
  8
0
 62
     0
 10
74.0572
 20
35.8316
 30
0.0
 11
88.0579
 21
35.8316
 31
0.0
  0
LINE
  8
0
 62
     0
 10
88.0579
 20
35.8316
 30
0.0
 11
88.0579
 21
21.8323
 31
0.0
  0
LINE
  8
0
 62
     0
 10
88.0579
 20
21.8323
 30
0.0
 11
74.0572
 21
21.8323
 31
0.0
  0
LINE
  8
0
 62
     0
 10
74.0572
 20
21.8323
 30
0.0
 11
74.0572
 21
35.8316
 31
0.0
  0
LINE
  8
0
 62
     0
 10
111.514
 20
54.4587
 30
0.0
 11
111.514
 21
53.6317
 31
0.0
  0
LINE
  8
0
 62
     0
 10
111.514
 20
53.6317
 30
0.0
 11
105.243
 21
53.6317
 31
0.0
  0
LINE
  8
0
 62
     0
 10
105.243
 20
53.6317
 30
0.0
 11
105.243
 21
51.9081
 31
0.0
  0
LINE
  8
0
 62
     0
 10
105.243
 20
51.9081
 30
0.0
 11
104.043
 21
51.9081
 31
0.0
  0
LINE
  8
0
 62
     0
 10
104.043
 20
51.9081
 30
0.0
 11
104.043
 21
48.6075
 31
0.0
  0
LINE
  8
0
 62
     0
 10
104.043
 20
48.6075
 30
0.0
 11
105.243
 21
48.6075
 31
0.0
  0
LINE
  8
0
 62
     0
 10
105.243
 20
48.6075
 30
0.0
 11
105.243
 21
46.8824
 31
0.0
  0
LINE
  8
0
 62
     0
 10
105.243
 20
46.8824
 30
0.0
 11
109.714
 21
46.8824
 31
0.0
  0
LINE
  8
0
 62
     0
 10
109.714
 20
46.8824
 30
0.0
 11
109.714
 21
45.3566
 31
0.0
  0
LINE
  8
0
 62
     0
 10
109.714
 20
45.3566
 30
0.0
 11
105.013
 21
45.3566
 31
0.0
  0
LINE
  8
0
 62
     0
 10
105.013
 20
45.3566
 30
0.0
 11
105.013
 21
31.3573
 31
0.0
  0
LINE
  8
0
 62
     0
 10
105.013
 20
31.3573
 30
0.0
 11
109.714
 21
31.3573
 31
0.0
  0
LINE
  8
0
 62
     0
 10
109.714
 20
31.3573
 30
0.0
 11
109.714
 21
29.8318
 31
0.0
  0
LINE
  8
0
 62
     0
 10
109.714
 20
29.8318
 30
0.0
 11
105.243
 21
29.8318
 31
0.0
  0
LINE
  8
0
 62
     0
 10
105.243
 20
29.8318
 30
0.0
 11
105.243
 21
28.1079
 31
0.0
  0
LINE
  8
0
 62
     0
 10
105.243
 20
28.1079
 30
0.0
 11
104.043
 21
28.1079
 31
0.0
  0
LINE
  8
0
 62
     0
 10
104.043
 20
28.1079
 30
0.0
 11
104.043
 21
24.8074
 31
0.0
  0
LINE
  8
0
 62
     0
 10
104.043
 20
24.8074
 30
0.0
 11
105.243
 21
24.8074
 31
0.0
  0
LINE
  8
0
 62
     0
 10
105.243
 20
24.8074
 30
0.0
 11
105.243
 21
23.0821
 31
0.0
  0
LINE
  8
0
 62
     0
 10
105.243
 20
23.0821
 30
0.0
 11
111.514
 21
23.0821
 31
0.0
  0
LINE
  8
0
 62
     0
 10
111.514
 20
23.0821
 30
0.0
 11
111.514
 21
22.2567
 31
0.0
  0
LINE
  8
0
 62
     0
 10
111.514
 20
22.2567
 30
0.0
 11
114.314
 21
22.2567
 31
0.0
  0
LINE
  8
0
 62
     0
 10
114.314
 20
22.2567
 30
0.0
 11
114.314
 21
23.0821
 31
0.0
  0
LINE
  8
0
 62
     0
 10
114.314
 20
23.0821
 30
0.0
 11
117.544
 21
23.0821
 31
0.0
  0
LINE
  8
0
 62
     0
 10
117.544
 20
23.0821
 30
0.0
 11
117.544
 21
29.8318
 31
0.0
  0
LINE
  8
0
 62
     0
 10
117.544
 20
29.8318
 30
0.0
 11
114.314
 21
29.8318
 31
0.0
  0
LINE
  8
0
 62
     0
 10
114.314
 20
29.8318
 30
0.0
 11
114.314
 21
31.3573
 31
0.0
  0
LINE
  8
0
 62
     0
 10
114.314
 20
31.3573
 30
0.0
 11
119.013
 21
31.3573
 31
0.0
  0
LINE
  8
0
 62
     0
 10
119.013
 20
31.3573
 30
0.0
 11
119.013
 21
45.3566
 31
0.0
  0
LINE
  8
0
 62
     0
 10
119.013
 20
45.3566
 30
0.0
 11
114.314
 21
45.3566
 31
0.0
  0
LINE
  8
0
 62
     0
 10
114.314
 20
45.3566
 30
0.0
 11
114.314
 21
46.8824
 31
0.0
  0
LINE
  8
0
 62
     0
 10
114.314
 20
46.8824
 30
0.0
 11
117.544
 21
46.8824
 31
0.0
  0
LINE
  8
0
 62
     0
 10
117.544
 20
46.8824
 30
0.0
 11
117.544
 21
53.6317
 31
0.0
  0
LINE
  8
0
 62
     0
 10
117.544
 20
53.6317
 30
0.0
 11
114.314
 21
53.6317
 31
0.0
  0
LINE
  8
0
 62
     0
 10
114.314
 20
53.6317
 30
0.0
 11
114.314
 21
54.4587
 31
0.0
  0
LINE
  8
0
 62
     0
 10
114.314
 20
54.4587
 30
0.0
 11
111.514
 21
54.4587
 31
0.0
  0
LINE
  8
0
 62
     0
 10
2.62103
 20
54.8816
 30
0.0
 11
16.6205
 21
54.8816
 31
0.0
  0
LINE
  8
0
 62
     0
 10
16.6205
 20
54.8816
 30
0.0
 11
16.6205
 21
40.8824
 31
0.0
  0
LINE
  8
0
 62
     0
 10
16.6205
 20
40.8824
 30
0.0
 11
2.62103
 21
40.8824
 31
0.0
  0
LINE
  8
0
 62
     0
 10
2.62103
 20
40.8824
 30
0.0
 11
2.62103
 21
54.8816
 31
0.0
  0
LINE
  8
0
 62
     0
 10
21.671
 20
54.8816
 30
0.0
 11
35.6704
 21
54.8816
 31
0.0
  0
LINE
  8
0
 62
     0
 10
35.6704
 20
54.8816
 30
0.0
 11
35.6704
 21
40.8824
 31
0.0
  0
LINE
  8
0
 62
     0
 10
35.6704
 20
40.8824
 30
0.0
 11
21.671
 21
40.8824
 31
0.0
  0
LINE
  8
0
 62
     0
 10
21.671
 20
40.8824
 30
0.0
 11
21.671
 21
54.8816
 31
0.0
  0
LINE
  8
0
 62
     0
 10
40.7211
 20
54.8816
 30
0.0
 11
54.7204
 21
54.8816
 31
0.0
  0
LINE
  8
0
 62
     0
 10
54.7204
 20
54.8816
 30
0.0
 11
54.7204
 21
40.8824
 31
0.0
  0
LINE
  8
0
 62
     0
 10
54.7204
 20
40.8824
 30
0.0
 11
40.7211
 21
40.8824
 31
0.0
  0
LINE
  8
0
 62
     0
 10
40.7211
 20
40.8824
 30
0.0
 11
40.7211
 21
54.8816
 31
0.0
  0
LINE
  8
0
 62
     0
 10
59.7711
 20
54.8816
 30
0.0
 11
73.7704
 21
54.8816
 31
0.0
  0
LINE
  8
0
 62
     0
 10
73.7704
 20
54.8816
 30
0.0
 11
73.7704
 21
40.8824
 31
0.0
  0
LINE
  8
0
 62
     0
 10
73.7704
 20
40.8824
 30
0.0
 11
59.7711
 21
40.8824
 31
0.0
  0
LINE
  8
0
 62
     0
 10
59.7711
 20
40.8824
 30
0.0
 11
59.7711
 21
54.8816
 31
0.0
  0
LINE
  8
0
 62
     0
 10
78.8211
 20
54.8816
 30
0.0
 11
92.8204
 21
54.8816
 31
0.0
  0
LINE
  8
0
 62
     0
 10
92.8204
 20
54.8816
 30
0.0
 11
92.8204
 21
40.8824
 31
0.0
  0
LINE
  8
0
 62
     0
 10
92.8204
 20
40.8824
 30
0.0
 11
78.8211
 21
40.8824
 31
0.0
  0
LINE
  8
0
 62
     0
 10
78.8211
 20
40.8824
 30
0.0
 11
78.8211
 21
54.8816
 31
0.0
  0
ENDSEC
  0
EOF
