0
SECTION
2
HEADER
9
$INSUNITS
70
4
0
ENDSEC
0
SECTION
2
TABLES
0
TABLE
2
LTYPE
0
LTYPE
72
65
70
64
2
CONTINUOUS
3
______
73
0
40
0
0
ENDTAB
0
TABLE
2
LAYER
0
ENDTAB
0
ENDSEC
0
SECTION
2
ENTITIES
0
LINE
8
0
10
36.3625
20
-2.525
11
49.3625
21
-2.525
0
LINE
8
0
10
36.3625
20
-16.525
11
49.3625
21
-16.525
0
LINE
8
0
10
35.8625
20
-3.025
11
35.8625
21
-16.025
0
LINE
8
0
10
49.8625
20
-3.025
11
49.8625
21
-16.025
0
ARC
8
0
10
36.3625
20
-3.025
40
0.5
50
90
51
180
0
ARC
8
0
10
49.3625
20
-3.025
40
0.5
50
0
51
90
0
ARC
8
0
10
36.3625
20
-16.025
40
0.5
50
180
51
270
0
ARC
8
0
10
49.3625
20
-16.025
40
0.5
50
270
51
0
0
LINE
8
0
10
55.4125
20
-2.525
11
68.4125
21
-2.525
0
LINE
8
0
10
55.4125
20
-16.525
11
68.4125
21
-16.525
0
LINE
8
0
10
54.9125
20
-3.025
11
54.9125
21
-16.025
0
LINE
8
0
10
68.9125
20
-3.025
11
68.9125
21
-16.025
0
ARC
8
0
10
55.4125
20
-3.025
40
0.5
50
90
51
180
0
ARC
8
0
10
68.4125
20
-3.025
40
0.5
50
0
51
90
0
ARC
8
0
10
55.4125
20
-16.025
40
0.5
50
180
51
270
0
ARC
8
0
10
68.4125
20
-16.025
40
0.5
50
270
51
0
0
LINE
8
0
10
74.4625
20
-2.525
11
87.4625
21
-2.525
0
LINE
8
0
10
74.4625
20
-16.525
11
87.4625
21
-16.525
0
LINE
8
0
10
73.9625
20
-3.025
11
73.9625
21
-16.025
0
LINE
8
0
10
87.9625
20
-3.025
11
87.9625
21
-16.025
0
ARC
8
0
10
74.4625
20
-3.025
40
0.5
50
90
51
180
0
ARC
8
0
10
87.4625
20
-3.025
40
0.5
50
0
51
90
0
ARC
8
0
10
74.4625
20
-16.025
40
0.5
50
180
51
270
0
ARC
8
0
10
87.4625
20
-16.025
40
0.5
50
270
51
0
0
LINE
8
0
10
93.5125
20
-2.525
11
106.5125
21
-2.525
0
LINE
8
0
10
93.5125
20
-16.525
11
106.5125
21
-16.525
0
LINE
8
0
10
93.0125
20
-3.025
11
93.0125
21
-16.025
0
LINE
8
0
10
107.0125
20
-3.025
11
107.0125
21
-16.025
0
ARC
8
0
10
93.5125
20
-3.025
40
0.5
50
90
51
180
0
ARC
8
0
10
106.5125
20
-3.025
40
0.5
50
0
51
90
0
ARC
8
0
10
93.5125
20
-16.025
40
0.5
50
180
51
270
0
ARC
8
0
10
106.5125
20
-16.025
40
0.5
50
270
51
0
0
LINE
8
0
10
112.5625
20
-2.525
11
125.5625
21
-2.525
0
LINE
8
0
10
112.5625
20
-16.525
11
125.5625
21
-16.525
0
LINE
8
0
10
112.0625
20
-3.025
11
112.0625
21
-16.025
0
LINE
8
0
10
126.0625
20
-3.025
11
126.0625
21
-16.025
0
ARC
8
0
10
112.5625
20
-3.025
40
0.5
50
90
51
180
0
ARC
8
0
10
125.5625
20
-3.025
40
0.5
50
0
51
90
0
ARC
8
0
10
112.5625
20
-16.025
40
0.5
50
180
51
270
0
ARC
8
0
10
125.5625
20
-16.025
40
0.5
50
270
51
0
0
LINE
8
0
10
152.25625
20
-12.55
11
152.25625
21
-25.55
0
LINE
8
0
10
138.25625
20
-12.55
11
138.25625
21
-25.55
0
LINE
8
0
10
151.75625
20
-12.05
11
138.75625
21
-12.05
0
LINE
8
0
10
151.75625
20
-26.05
11
138.75625
21
-26.05
0
ARC
8
0
10
151.75625
20
-12.55
40
0.5
50
0
51
90
0
ARC
8
0
10
151.75625
20
-25.55
40
0.5
50
270
51
0
0
ARC
8
0
10
138.75625
20
-12.55
40
0.5
50
90
51
180
0
ARC
8
0
10
138.75625
20
-25.55
40
0.5
50
180
51
270
0
LINE
8
0
10
151.25625
20
-4.112
11
151.25625
21
-10.112
0
LINE
8
0
10
136.25625
20
-4.112
11
136.25625
21
-10.112
0
LINE
8
0
10
150.75625
20
-3.612
11
136.75625
21
-3.612
0
LINE
8
0
10
150.75625
20
-10.612
11
136.75625
21
-10.612
0
ARC
8
0
10
150.75625
20
-4.112
40
0.5
50
0
51
90
0
ARC
8
0
10
150.75625
20
-10.112
40
0.5
50
270
51
0
0
ARC
8
0
10
136.75625
20
-4.112
40
0.5
50
90
51
180
0
ARC
8
0
10
136.75625
20
-10.112
40
0.5
50
180
51
270
0
LINE
8
0
10
151.25625
20
-27.988
11
151.25625
21
-33.988
0
LINE
8
0
10
136.25625
20
-27.988
11
136.25625
21
-33.988
0
LINE
8
0
10
150.75625
20
-27.488
11
136.75625
21
-27.488
0
LINE
8
0
10
150.75625
20
-34.488
11
136.75625
21
-34.488
0
ARC
8
0
10
150.75625
20
-27.988
40
0.5
50
0
51
90
0
ARC
8
0
10
150.75625
20
-33.988
40
0.5
50
270
51
0
0
ARC
8
0
10
136.75625
20
-27.988
40
0.5
50
90
51
180
0
ARC
8
0
10
136.75625
20
-33.988
40
0.5
50
180
51
270
0
LINE
8
0
10
38.74375
20
-21.575
11
51.74375
21
-21.575
0
LINE
8
0
10
38.74375
20
-35.575
11
51.74375
21
-35.575
0
LINE
8
0
10
38.24375
20
-22.075
11
38.24375
21
-35.075
0
LINE
8
0
10
52.24375
20
-22.075
11
52.24375
21
-35.075
0
ARC
8
0
10
38.74375
20
-22.075
40
0.5
50
90
51
180
0
ARC
8
0
10
51.74375
20
-22.075
40
0.5
50
0
51
90
0
ARC
8
0
10
38.74375
20
-35.075
40
0.5
50
180
51
270
0
ARC
8
0
10
51.74375
20
-35.075
40
0.5
50
270
51
0
0
LINE
8
0
10
43.50625
20
-21.575
11
56.50625
21
-21.575
0
LINE
8
0
10
43.50625
20
-35.575
11
56.50625
21
-35.575
0
LINE
8
0
10
43.00625
20
-22.075
11
43.00625
21
-35.075
0
LINE
8
0
10
57.00625
20
-22.075
11
57.00625
21
-35.075
0
ARC
8
0
10
43.50625
20
-22.075
40
0.5
50
90
51
180
0
ARC
8
0
10
56.50625
20
-22.075
40
0.5
50
0
51
90
0
ARC
8
0
10
43.50625
20
-35.075
40
0.5
50
180
51
270
0
ARC
8
0
10
56.50625
20
-35.075
40
0.5
50
270
51
0
0
LINE
8
0
10
69.7
20
-21.575
11
82.7
21
-21.575
0
LINE
8
0
10
69.7
20
-35.575
11
82.7
21
-35.575
0
LINE
8
0
10
69.2
20
-22.075
11
69.2
21
-35.075
0
LINE
8
0
10
83.2
20
-22.075
11
83.2
21
-35.075
0
ARC
8
0
10
69.7
20
-22.075
40
0.5
50
90
51
180
0
ARC
8
0
10
82.7
20
-22.075
40
0.5
50
0
51
90
0
ARC
8
0
10
69.7
20
-35.075
40
0.5
50
180
51
270
0
ARC
8
0
10
82.7
20
-35.075
40
0.5
50
270
51
0
0
LINE
8
0
10
88.75
20
-21.575
11
101.75
21
-21.575
0
LINE
8
0
10
88.75
20
-35.575
11
101.75
21
-35.575
0
LINE
8
0
10
88.25
20
-22.075
11
88.25
21
-35.075
0
LINE
8
0
10
102.25
20
-22.075
11
102.25
21
-35.075
0
ARC
8
0
10
88.75
20
-22.075
40
0.5
50
90
51
180
0
ARC
8
0
10
101.75
20
-22.075
40
0.5
50
0
51
90
0
ARC
8
0
10
88.75
20
-35.075
40
0.5
50
180
51
270
0
ARC
8
0
10
101.75
20
-35.075
40
0.5
50
270
51
0
0
LINE
8
0
10
107.8
20
-21.575
11
120.8
21
-21.575
0
LINE
8
0
10
107.8
20
-35.575
11
120.8
21
-35.575
0
LINE
8
0
10
107.3
20
-22.075
11
107.3
21
-35.075
0
LINE
8
0
10
121.3
20
-22.075
11
121.3
21
-35.075
0
ARC
8
0
10
107.8
20
-22.075
40
0.5
50
90
51
180
0
ARC
8
0
10
120.8
20
-22.075
40
0.5
50
0
51
90
0
ARC
8
0
10
107.8
20
-35.075
40
0.5
50
180
51
270
0
ARC
8
0
10
120.8
20
-35.075
40
0.5
50
270
51
0
0
LINE
8
0
10
135.5875
20
-22.075
11
135.5875
21
-35.075
0
LINE
8
0
10
121.5875
20
-22.075
11
121.5875
21
-35.075
0
LINE
8
0
10
135.0875
20
-21.575
11
122.0875
21
-21.575
0
LINE
8
0
10
135.0875
20
-35.575
11
122.0875
21
-35.575
0
ARC
8
0
10
135.0875
20
-22.075
40
0.5
50
0
51
90
0
ARC
8
0
10
135.0875
20
-35.075
40
0.5
50
270
51
0
0
ARC
8
0
10
122.0875
20
-22.075
40
0.5
50
90
51
180
0
ARC
8
0
10
122.0875
20
-35.075
40
0.5
50
180
51
270
0
LINE
8
0
10
41.125
20
-40.625
11
54.125
21
-40.625
0
LINE
8
0
10
41.125
20
-54.625
11
54.125
21
-54.625
0
LINE
8
0
10
40.625
20
-41.125
11
40.625
21
-54.125
0
LINE
8
0
10
54.625
20
-41.125
11
54.625
21
-54.125
0
ARC
8
0
10
41.125
20
-41.125
40
0.5
50
90
51
180
0
ARC
8
0
10
54.125
20
-41.125
40
0.5
50
0
51
90
0
ARC
8
0
10
41.125
20
-54.125
40
0.5
50
180
51
270
0
ARC
8
0
10
54.125
20
-54.125
40
0.5
50
270
51
0
0
LINE
8
0
10
57.79375
20
-40.625
11
70.79375
21
-40.625
0
LINE
8
0
10
57.79375
20
-54.625
11
70.79375
21
-54.625
0
LINE
8
0
10
57.29375
20
-41.125
11
57.29375
21
-54.125
0
LINE
8
0
10
71.29375
20
-41.125
11
71.29375
21
-54.125
0
ARC
8
0
10
57.79375
20
-41.125
40
0.5
50
90
51
180
0
ARC
8
0
10
70.79375
20
-41.125
40
0.5
50
0
51
90
0
ARC
8
0
10
57.79375
20
-54.125
40
0.5
50
180
51
270
0
ARC
8
0
10
70.79375
20
-54.125
40
0.5
50
270
51
0
0
LINE
8
0
10
60.175
20
-40.625
11
73.175
21
-40.625
0
LINE
8
0
10
60.175
20
-54.625
11
73.175
21
-54.625
0
LINE
8
0
10
59.675
20
-41.125
11
59.675
21
-54.125
0
LINE
8
0
10
73.675
20
-41.125
11
73.675
21
-54.125
0
ARC
8
0
10
60.175
20
-41.125
40
0.5
50
90
51
180
0
ARC
8
0
10
73.175
20
-41.125
40
0.5
50
0
51
90
0
ARC
8
0
10
60.175
20
-54.125
40
0.5
50
180
51
270
0
ARC
8
0
10
73.175
20
-54.125
40
0.5
50
270
51
0
0
LINE
8
0
10
88.75
20
-40.625
11
101.75
21
-40.625
0
LINE
8
0
10
88.75
20
-54.625
11
101.75
21
-54.625
0
LINE
8
0
10
88.25
20
-41.125
11
88.25
21
-54.125
0
LINE
8
0
10
102.25
20
-41.125
11
102.25
21
-54.125
0
ARC
8
0
10
88.75
20
-41.125
40
0.5
50
90
51
180
0
ARC
8
0
10
101.75
20
-41.125
40
0.5
50
0
51
90
0
ARC
8
0
10
88.75
20
-54.125
40
0.5
50
180
51
270
0
ARC
8
0
10
101.75
20
-54.125
40
0.5
50
270
51
0
0
LINE
8
0
10
80.312
20
-41.625
11
86.312
21
-41.625
0
LINE
8
0
10
80.312
20
-56.625
11
86.312
21
-56.625
0
LINE
8
0
10
79.812
20
-42.125
11
79.812
21
-56.125
0
LINE
8
0
10
86.812
20
-42.125
11
86.812
21
-56.125
0
ARC
8
0
10
80.312
20
-42.125
40
0.5
50
90
51
180
0
ARC
8
0
10
86.312
20
-42.125
40
0.5
50
0
51
90
0
ARC
8
0
10
80.312
20
-56.125
40
0.5
50
180
51
270
0
ARC
8
0
10
86.312
20
-56.125
40
0.5
50
270
51
0
0
LINE
8
0
10
104.188
20
-41.625
11
110.188
21
-41.625
0
LINE
8
0
10
104.188
20
-56.625
11
110.188
21
-56.625
0
LINE
8
0
10
103.688
20
-42.125
11
103.688
21
-56.125
0
LINE
8
0
10
110.688
20
-42.125
11
110.688
21
-56.125
0
ARC
8
0
10
104.188
20
-42.125
40
0.5
50
90
51
180
0
ARC
8
0
10
110.188
20
-42.125
40
0.5
50
0
51
90
0
ARC
8
0
10
104.188
20
-56.125
40
0.5
50
180
51
270
0
ARC
8
0
10
110.188
20
-56.125
40
0.5
50
270
51
0
0
LINE
8
0
10
119.70625
20
-40.625
11
132.70625
21
-40.625
0
LINE
8
0
10
119.70625
20
-54.625
11
132.70625
21
-54.625
0
LINE
8
0
10
119.20625
20
-41.125
11
119.20625
21
-54.125
0
LINE
8
0
10
133.20625
20
-41.125
11
133.20625
21
-54.125
0
ARC
8
0
10
119.70625
20
-41.125
40
0.5
50
90
51
180
0
ARC
8
0
10
132.70625
20
-41.125
40
0.5
50
0
51
90
0
ARC
8
0
10
119.70625
20
-54.125
40
0.5
50
180
51
270
0
ARC
8
0
10
132.70625
20
-54.125
40
0.5
50
270
51
0
0
LINE
8
0
10
117.325
20
-40.625
11
130.325
21
-40.625
0
LINE
8
0
10
117.325
20
-54.625
11
130.325
21
-54.625
0
LINE
8
0
10
116.825
20
-41.125
11
116.825
21
-54.125
0
LINE
8
0
10
130.825
20
-41.125
11
130.825
21
-54.125
0
ARC
8
0
10
117.325
20
-41.125
40
0.5
50
90
51
180
0
ARC
8
0
10
130.325
20
-41.125
40
0.5
50
0
51
90
0
ARC
8
0
10
117.325
20
-54.125
40
0.5
50
180
51
270
0
ARC
8
0
10
130.325
20
-54.125
40
0.5
50
270
51
0
0
LINE
8
0
10
136.375
20
-40.625
11
149.375
21
-40.625
0
LINE
8
0
10
136.375
20
-54.625
11
149.375
21
-54.625
0
LINE
8
0
10
135.875
20
-41.125
11
135.875
21
-54.125
0
LINE
8
0
10
149.875
20
-41.125
11
149.875
21
-54.125
0
ARC
8
0
10
136.375
20
-41.125
40
0.5
50
90
51
180
0
ARC
8
0
10
149.375
20
-41.125
40
0.5
50
0
51
90
0
ARC
8
0
10
136.375
20
-54.125
40
0.5
50
180
51
270
0
ARC
8
0
10
149.375
20
-54.125
40
0.5
50
270
51
0
0
LINE
8
0
10
33.3375
20
-57.15
11
157.1625
21
-57.15
0
LINE
8
0
10
33.3375
20
0
11
157.1625
21
0
0
LINE
8
0
10
33.3375
20
-57.15
11
33.3375
21
0
0
LINE
8
0
10
157.1625
20
-57.15
11
157.1625
21
0
0
ENDSEC
0
EOF